<svg width="157" height="157" viewBox="0 0 157 157" fill="none" xmlns="http://www.w3.org/2000/svg">
<path d="M19 52.9C19 40.4597 19 34.2395 21.4628 29.4879C23.6291 25.3083 27.0859 21.9102 31.3375 19.7806C36.171 17.3595 42.4985 17.3595 55.1533 17.3595H100.597C113.252 17.3595 119.579 17.3595 124.412 19.7806C128.664 21.9102 132.121 25.3083 134.287 29.4879C136.75 34.2395 136.75 40.4597 136.75 52.9V99.569C136.75 112.009 136.75 118.229 134.287 122.981C132.121 127.161 128.664 130.559 124.412 132.688C119.579 135.109 113.252 135.109 100.597 135.109H55.1533C42.4985 135.109 36.171 135.109 31.3375 132.688C27.0859 130.559 23.6291 127.161 21.4628 122.981C19 118.229 19 112.009 19 99.5689V52.9Z" fill="url(#paint0_linear_9167_4765)"/>
<path d="M86.6431 67.8595H59.5833C55.6713 67.8595 52.5 64.6882 52.5 60.7762C52.5 56.8641 55.6713 53.6928 59.5833 53.6928H86.6431M69.3569 99.0262H96.4167C100.329 99.0262 103.5 95.8548 103.5 91.9428C103.5 88.0308 100.329 84.8595 96.4167 84.8595H69.3569M52.5 91.9428C52.5 97.4197 56.9398 101.859 62.4167 101.859C67.8935 101.859 72.3333 97.4197 72.3333 91.9428C72.3333 86.466 67.8935 82.0262 62.4167 82.0262C56.9398 82.0262 52.5 86.466 52.5 91.9428ZM103.5 60.7762C103.5 66.253 99.0602 70.6928 93.5833 70.6928C88.1065 70.6928 83.6667 66.253 83.6667 60.7762C83.6667 55.2993 88.1065 50.8595 93.5833 50.8595C99.0602 50.8595 103.5 55.2993 103.5 60.7762Z" stroke="white" stroke-width="4" stroke-linecap="round" stroke-linejoin="round"/>
<defs>
<linearGradient id="paint0_linear_9167_4765" x1="19" y1="17.3595" x2="136.75" y2="102.686" gradientUnits="userSpaceOnUse">
<stop stop-color="#66D9C6"/>
<stop offset="1" stop-color="#009688"/>
</linearGradient>
</defs>
</svg>
